<?xml version="1.0" standalone="no"?>
<svg version="1.0" xmlns="http://www.w3.org/2000/svg"
 width="700pt" height="700pt" viewBox="0 0 700 700"
 preserveAspectRatio="xMidYMid meet">
  <g transform="translate(0, 700) scale(0.1, -0.1)" fill="#000000" stroke="none">
    <path d="M3675 5797 c-4 -10 -40 -159 -60 -247 -2 -8 -9 -37 -15 -65 -6 -27
    -13 -57 -15 -65 -20 -85 -88 -380 -91 -395 -3 -11 -7 -31 -10 -45 -3 -14 -16
    -72 -30 -130 -14 -58 -34 -141 -44 -185 -11 -44 -31 -132 -45 -195 -14 -63
    -39 -171 -55 -240 -97 -411 -179 -768 -183 -790 -3 -14 -10 -45 -17 -70 -7
    -25 -14 -56 -16 -69 -3 -12 -12 -53 -20 -90 -9 -36 -17 -73 -19 -81 -2 -8 -42
    -181 -90 -385 -48 -203 -89 -381 -91 -395 -3 -14 -16 -72 -30 -130 -14 -58
    -28 -116 -30 -130 -3 -14 -14 -61 -24 -105 -26 -107 -130 -554 -136 -583 -3
    -13 -13 -60 -24 -105 -11 -45 -20 -87 -20 -94 0 -9 114 -12 463 -11 254 0 470
    2 479 4 9 3 20 19 23 37 4 18 18 79 32 137 13 58 27 116 29 130 3 14 11 50 19
    80 8 30 16 66 19 80 5 29 22 101 73 315 19 83 36 157 38 165 12 55 68 297 95
    410 18 74 34 144 35 155 2 11 10 47 18 80 9 33 18 71 21 85 2 14 12 57 21 95
    9 39 18 79 21 90 2 11 13 58 25 105 11 47 23 94 25 105 7 36 12 58 49 215 20
    85 39 166 41 180 3 14 9 39 14 55 5 17 12 44 15 61 3 18 17 81 31 140 14 60
    27 116 29 124 2 8 26 114 55 235 28 121 54 231 56 244 3 13 38 168 80 345 41
    176 76 330 78 341 3 11 16 67 30 125 13 58 27 116 30 130 3 14 21 93 40 175
    20 83 36 155 36 162 0 17 -949 16 -955 0z"/>
    <path d="M6021 5722 c-60 -255 -85 -362 -96 -412 -3 -13 -86 -372 -170 -735
    -13 -55 -51 -219 -85 -365 -34 -146 -63 -272 -65 -280 -2 -8 -11 -46 -19 -85
    -17 -76 -38 -167 -140 -605 -37 -157 -69 -294 -71 -305 -3 -11 -18 -78 -35
    -150 -26 -110 -94 -407 -105 -455 -12 -52 -41 -175 -72 -305 -19 -82 -37 -161
    -40 -175 -4 -22 -27 -122 -64 -280 -7 -30 -14 -57 -14 -60 -1 -3 -4 -18 -8
    -35 -4 -16 -9 -39 -12 -50 -34 -151 -46 -203 -50 -216 -5 -16 32 -17 475 -17
    l480 0 9 36 c6 21 12 48 15 62 2 14 14 63 25 110 22 93 90 389 96 417 2 10 13
    59 25 108 12 50 46 196 76 325 61 262 134 577 139 600 11 43 127 548 131 565
    2 11 6 29 8 40 2 11 30 128 61 260 31 132 59 251 62 265 2 14 16 72 29 130 14
    58 27 112 29 120 2 8 10 47 19 85 8 39 38 167 66 285 71 301 135 580 146 630
    2 14 7 33 10 42 3 9 7 25 9 35 13 63 78 347 89 393 8 30 17 67 20 81 l6 27
    -479 0 -479 0 -21 -86z"/>
    <path d="M2 4431 l3 -465 823 0 c453 -1 827 1 831 4 4 3 7 211 7 463 l-1 457
    -25 1 c-14 1 -388 2 -833 3 l-807 1 2 -464z"/>
    <path d="M17 3182 c-16 -3 -17 -39 -15 -465 l3 -462 823 0 c542 0 826 3 830
    10 4 5 7 214 7 463 l0 452 -25 1 c-82 3 -1609 3 -1623 1z"/>
  </g>
</svg>
