<?xml version="1.0" standalone="no"?>
<!DOCTYPE svg PUBLIC "-//W3C//DTD SVG 20010904//EN"
 "http://www.w3.org/TR/2001/REC-SVG-20010904/DTD/svg10.dtd">
<svg version="1.0" xmlns="http://www.w3.org/2000/svg"
 width="700.000000pt" height="700.000000pt" viewBox="0 0 700.000000 700.000000"
 preserveAspectRatio="xMidYMid meet">
<metadata>
Created by potrace 1.11, written by Peter Selinger 2001-2013
</metadata>
<g transform="translate(0.000000,700.000000) scale(0.100000,-0.100000)"
fill="#000000" stroke="none">
<path d="M3298 6995 c-2 -1 -41 -5 -88 -9 -100 -7 -225 -22 -295 -36 -27 -5
-61 -12 -75 -14 -431 -79 -908 -273 -1275 -519 -69 -46 -297 -217 -305 -228
-3 -3 -25 -23 -50 -44 -85 -70 -216 -201 -361 -361 -107 -118 -286 -370 -386
-544 -158 -276 -309 -656 -369 -933 -20 -90 -53 -272 -59 -322 -4 -33 -9 -69
-11 -80 -18 -95 -25 -533 -12 -695 7 -78 23 -210 33 -270 6 -32 24 -129 29
-155 48 -244 156 -562 273 -802 449 -928 1279 -1611 2270 -1868 72 -19 142
-36 155 -39 13 -2 50 -9 83 -15 33 -6 71 -13 85 -16 14 -3 52 -8 85 -11 33 -3
63 -8 66 -9 15 -10 227 -20 409 -20 188 0 341 8 430 21 144 21 295 48 345 61
33 8 67 16 75 18 109 22 388 117 549 187 121 53 308 148 353 179 14 11 29 19
33 19 24 0 383 257 495 355 119 104 294 279 365 365 21 25 41 47 44 50 4 3 45
55 91 115 332 436 547 915 654 1456 14 70 28 155 32 190 3 35 8 67 10 70 9 17
19 214 18 399 0 188 -6 331 -19 420 -3 19 -7 56 -10 81 -3 25 -7 54 -9 65 -2
10 -11 60 -21 109 -85 456 -276 915 -543 1305 -57 84 -195 266 -212 280 -3 3
-30 34 -60 69 -299 347 -754 683 -1181 872 -255 112 -590 217 -814 253 -54 9
-239 35 -295 41 -55 7 -526 16 -532 10z m-763 -2368 c295 -45 572 -201 751
-422 241 -299 304 -733 163 -1123 -67 -185 -214 -376 -380 -495 -135 -96 -344
-181 -509 -208 -628 -101 -1191 191 -1378 713 -61 169 -67 209 -67 408 1 160
5 205 34 312 51 194 150 359 301 506 159 155 436 284 665 309 28 3 52 7 54 9
6 5 326 -3 366 -9z m1895 -76 c1 -31 1 -206 1 -388 -1 -183 3 -334 7 -334 4
-1 181 -2 395 -3 340 -1 387 0 388 14 1 8 2 184 3 390 l1 375 334 0 333 0 0
-1098 c0 -604 -2 -1101 -6 -1104 -3 -3 -153 -6 -333 -6 l-328 -1 0 417 c-1
229 -4 419 -7 422 -5 5 -481 9 -735 6 l-52 -1 0 -367 c0 -203 -1 -393 -1 -423
l0 -55 -318 2 c-174 0 -324 2 -333 2 -14 1 -15 111 -15 1104 l0 1103 333 0
333 0 0 -55z"/>
<path d="M2287 4054 c-1 -1 -25 -4 -54 -8 -106 -12 -233 -80 -310 -165 -59
-64 -113 -171 -129 -255 -10 -53 -6 -230 6 -275 65 -241 263 -398 504 -402
121 -1 210 23 302 84 49 32 154 134 154 149 0 5 11 26 24 47 74 117 83 359 19
506 -58 134 -192 255 -328 295 -34 10 -182 29 -188 24z"/>
</g>
</svg>
